Coordinates
version=1
nRows=11
nColumns=46
inDegrees=yes

Units are S.I. units (second, meters, Newtons, ...)
Angles are in degrees.

endheader
time	pelvis_tilt	pelvis_list	pelvis_rotation	pelvis_tx	pelvis_ty	pelvis_tz	bb_angle	bb_tx	bb_ty	bb_tz	hip_flexion_r	hip_adduction_r	hip_rotation_r	knee_angle_r	knee_angle_r_beta	ankle_angle_r	subtalar_angle_r	mtp_angle_r	crank_angle_r	hip_flexion_l	hip_adduction_l	hip_rotation_l	knee_angle_l	knee_angle_l_beta	ankle_angle_l	subtalar_angle_l	mtp_angle_l	crank_angle_l	lumbar_extension	lumbar_bending	lumbar_rotation	arm_flex_r	arm_add_r	arm_rot_r	elbow_flex_r	pro_sup_r	wrist_flex_r	wrist_dev_r	arm_flex_l	arm_add_l	arm_rot_l	elbow_flex_l	pro_sup_l	wrist_flex_l	wrist_dev_l
      2.50500000	    -18.47210408	      5.42897488	      3.45331101	      0.15643978	      1.06363699	     -0.29187562	      0.00000000	      0.50000000	      0.00000000	      0.25000000	     66.42223813	     -5.46590010	      9.21520213	     89.69156009	      1.56541303	     -6.65869679	    -16.28003073	      0.00000000	      0.00000000	     69.05754421	     -0.52544894	     -1.35009546	     56.28047020	      0.98227951	      4.57319344	     -7.33278670	      0.00000000	      0.00000000	    -68.18843787	     -8.28578490	     -7.52219928	     88.75873315	    -23.90417783	     23.71790175	     65.64093599	     42.88537025	      0.00000000	      0.00000000	     89.66811615	    -10.15773608	     23.19656384	     80.93484615	     38.60264081	      0.00000000	      0.00000000
      2.51000000	    -18.32806737	      5.32408557	      3.07201094	      0.15693489	      1.06377713	     -0.29165665	      0.00000000	      0.50000000	      0.00000000	      0.25000000	     66.84157339	     -5.12415303	      9.21607130	     90.66251036	      1.58235931	     -6.42071706	    -16.36565104	      0.00000000	      0.00000000	     68.20111520	     -0.88215645	     -1.44662440	     55.15820776	      0.96269233	      3.86382779	     -7.19967031	      0.00000000	      0.00000000	    -68.29058891	     -8.50459826	     -7.29411215	     88.65155376	    -23.62110599	     22.80734598	     66.05455471	     42.95446179	      0.00000000	      0.00000000	     89.65655513	    -10.02989310	     22.87733635	     80.99690567	     39.10617452	      0.00000000	      0.00000000
      2.51500000	    -18.22904057	      5.13762434	      2.66726720	      0.15743351	      1.06378893	     -0.29123493	      0.00000000	      0.50000000	      0.00000000	      0.25000000	     67.34794741	     -4.73135169	      9.13007484	     91.66325165	      1.59982554	     -6.07537692	    -16.25398941	      0.00000000	      0.00000000	     67.39735888	     -1.34278621	     -1.51234843	     54.04008450	      0.94317740	      3.13136803	     -6.93631551	      0.00000000	      0.00000000	    -68.27090701	     -8.70884906	     -7.04565855	     88.63960592	    -23.40720797	     22.81466122	     66.10099810	     42.97263659	      0.00000000	      0.00000000	     89.64273236	    -10.13940633	     22.78447727	     81.00720907	     39.25363883	      0.00000000	      0.00000000
      2.52000000	    -18.20264279	      4.90454404	      2.28545048	      0.15788098	      1.06352324	     -0.29098206	      0.00000000	      0.50000000	      0.00000000	      0.25000000	     67.92643749	     -4.31067306	      9.05800777	     92.66617308	      1.61732983	     -5.64505296	    -15.96386574	      0.00000000	      0.00000000	     66.74168800	     -1.78339064	     -1.50219576	     53.04369836	      0.92578718	      2.37507669	     -6.78589850	      0.00000000	      0.00000000	    -67.99510596	     -8.86470601	     -6.94369870	     88.78563164	    -23.12314796	     24.21890236	     64.89133571	     42.77252905	      0.00000000	      0.00000000	     89.63116386	    -10.64793603	     23.29301995	     80.44574537	     38.98532380	      0.00000000	      0.00000000
      2.52500000	    -18.03164934	      4.68716624	      1.90983476	      0.15839353	      1.06355820	     -0.29063550	      0.00000000	      0.50000000	      0.00000000	      0.25000000	     68.34901622	     -3.90627957	      8.96642347	     93.66325286	      1.63473215	     -5.32853771	    -15.87112991	      0.00000000	      0.00000000	     65.90516402	     -2.24145769	     -1.55616715	     52.03722684	      0.90822094	      1.74484514	     -6.40236173	      0.00000000	      0.00000000	    -68.03969182	     -9.00409243	     -6.64617785	     88.75597344	    -22.82799221	     23.82280449	     65.08485987	     42.75864397	      0.00000000	      0.00000000	     89.61218390	    -10.62316080	     23.01490206	     80.47523601	     39.08875018	      0.00000000	      0.00000000
      2.53000000	    -17.91356006	      4.50171722	      1.46889475	      0.15904957	      1.06360848	     -0.29040112	      0.00000000	      0.50000000	      0.00000000	      0.25000000	     68.82299586	     -3.49010833	      8.92116229	     94.62114594	      1.65145054	     -4.99879829	    -15.76234743	      0.00000000	      0.00000000	     65.07466413	     -2.71674524	     -1.67088303	     50.97903072	      0.88975194	      1.03962704	     -6.27293836	      0.00000000	      0.00000000	    -68.01621707	     -9.21115293	     -6.39583093	     88.70189594	    -22.49095061	     23.46563856	     65.17945254	     42.77494048	      0.00000000	      0.00000000	     89.59331476	    -10.69688202	     22.90141876	     80.39867621	     39.37776851	      0.00000000	      0.00000000
      2.53500000	    -17.89246734	      4.21453546	      1.00907560	      0.15955471	      1.06315281	     -0.28996100	      0.00000000	      0.50000000	      0.00000000	      0.25000000	     69.49108745	     -2.95739898	      8.81191987	     95.71995412	      1.67062836	     -4.57196971	    -15.45083959	      0.00000000	      0.00000000	     64.52191517	     -3.36899057	     -1.83375593	     50.20308752	      0.87620917	      0.35754596	     -5.79871512	      0.00000000	      0.00000000	    -67.62280397	     -9.40516523	     -6.18990693	     88.84418372	    -22.09314823	     24.89973197	     63.59951675	     42.51729502	      0.00000000	      0.00000000	     89.57244321	    -11.22838025	     23.46681607	     79.60734418	     39.19413233	      0.00000000	      0.00000000
      2.54000000	    -17.73896788	      4.04166078	      0.63603292	      0.16008645	      1.06309379	     -0.28969891	      0.00000000	      0.50000000	      0.00000000	      0.25000000	     69.99467987	     -2.61258353	      8.72883591	     96.72654632	      1.68819671	     -4.25154959	    -15.26477488	      0.00000000	      0.00000000	     63.68917536	     -3.79311479	     -1.95335531	     49.21523474	      0.85896789	     -0.47595571	     -5.36769425	      0.00000000	      0.00000000	    -67.52610853	     -9.54625242	     -6.01069571	     88.84809105	    -21.64562209	     24.97870150	     63.03503154	     42.54741578	      0.00000000	      0.00000000	     89.55080053	    -11.39498730	     23.43329061	     79.08147974	     39.78472843	      0.00000000	      0.00000000
      2.54500000	    -17.59798972	      3.84986887	      0.18409007	      0.16069033	      1.06297074	     -0.28927202	      0.00000000	      0.50000000	      0.00000000	      0.25000000	     70.51583092	     -2.14939646	      8.67626292	     97.70803078	      1.70532684	     -3.94586830	    -15.14082952	      0.00000000	      0.00000000	     62.87976061	     -4.34375347	     -2.19136607	     48.26494051	      0.84238213	     -1.24203989	     -4.94861480	      0.00000000	      0.00000000	    -67.41485575	     -9.76100344	     -5.82404888	     88.87773321	    -21.28007536	     25.43657945	     62.44841391	     42.23879980	      0.00000000	      0.00000000	     89.51838538	    -11.65010425	     23.48547746	     78.97389351	     39.44034235	      0.00000000	      0.00000000
      2.55000000	    -17.41857265	      3.71995786	     -0.19554306	      0.16120436	      1.06297698	     -0.28891977	      0.00000000	      0.50000000	      0.00000000	      0.25000000	     71.02361288	     -1.80985930	      8.62904291	     98.69388232	      1.72253320	     -3.72162319	    -15.07873034	      0.00000000	      0.00000000	     61.95430244	     -4.73465656	     -2.36056579	     47.18330336	      0.82350400	     -2.05025700	     -4.66492990	      0.00000000	      0.00000000	    -67.38358320	     -9.94550322	     -5.60011380	     88.83415379	    -20.95467227	     25.13403544	     62.37848045	     42.20770385	      0.00000000	      0.00000000	     89.48268611	    -11.62938529	     23.33901964	     78.75293321	     39.57760146	      0.00000000	      0.00000000
      2.55500000	    -17.23407419	      3.56228266	     -0.62510339	      0.16172088	      1.06289126	     -0.28850484	      0.00000000	      0.50000000	      0.00000000	      0.25000000	     71.53651018	     -1.39005579	      8.60321563	     99.68105482	      1.73976261	     -3.37680884	    -14.79328525	      0.00000000	      0.00000000	     61.08112171	     -5.23123017	     -2.61570582	     46.23644480	      0.80697820	     -2.77007532	     -4.23142805	      0.00000000	      0.00000000	    -67.19829700	    -10.12689002	     -5.42066648	     88.86018284	    -20.33967382	     25.51554287	     61.30691888	     42.21551308	      0.00000000	      0.00000000	     89.46024090	    -11.90366221	     23.51044066	     77.75229251	     40.08959203	      0.00000000	      0.00000000
